<?xml version="1.0" encoding="UTF-8"?>
<svg version="1.1" xmlns="http://www.w3.org/2000/svg" width="512" height="512">
<path d="M0 0 C1.45108658 0.00273422 1.45108658 0.00273422 2.93148804 0.00552368 C17.26440977 0.05095174 31.21023917 0.55983928 45.3125 3.3125 C46.65803955 3.55395752 46.65803955 3.55395752 48.03076172 3.80029297 C107.84088904 14.62287989 165.35495829 48.68064457 202.3125 97.3125 C202.72918945 97.85277832 203.14587891 98.39305664 203.57519531 98.94970703 C211.2584873 108.9447116 218.00092968 119.40459036 224.3125 130.3125 C224.70679199 130.98974121 225.10108398 131.66698242 225.50732422 132.36474609 C238.68961173 155.2833756 247.29510918 180.85822563 252.625 206.6875 C252.77243652 207.39817627 252.91987305 208.10885254 253.07177734 208.84106445 C256.05713787 224.48358366 256.6873098 240.11919606 256.625 256 C256.62226578 257.45108658 256.62226578 257.45108658 256.61947632 258.93148804 C256.57404826 273.26440977 256.06516072 287.21023917 253.3125 301.3125 C253.15152832 302.20952637 252.99055664 303.10655273 252.82470703 304.03076172 C242.00212011 363.84088904 207.94435543 421.35495829 159.3125 458.3125 C158.77222168 458.72918945 158.23194336 459.14587891 157.67529297 459.57519531 C125.81531653 484.06637989 89.29345678 500.52448249 49.9375 508.625 C49.22698486 508.77235596 48.51646973 508.91971191 47.78442383 509.0715332 C32.14208949 512.05794017 16.50573907 512.68730954 0.625 512.625 C-0.34239105 512.62317719 -1.3097821 512.62135437 -2.30648804 512.61947632 C-16.63940977 512.57404826 -30.58523917 512.06516072 -44.6875 509.3125 C-45.58452637 509.15152832 -46.48155273 508.99055664 -47.40576172 508.82470703 C-107.21588904 498.00212011 -164.72995829 463.94435543 -201.6875 415.3125 C-202.10418945 414.77222168 -202.52087891 414.23194336 -202.95019531 413.67529297 C-210.6334873 403.6802884 -217.37592968 393.22040964 -223.6875 382.3125 C-224.08179199 381.63525879 -224.47608398 380.95801758 -224.88232422 380.26025391 C-238.06461173 357.3416244 -246.67010918 331.76677437 -252 305.9375 C-252.14743652 305.22682373 -252.29487305 304.51614746 -252.44677734 303.78393555 C-255.43213787 288.14141634 -256.0623098 272.50580394 -256 256.625 C-255.99817719 255.65760895 -255.99635437 254.6902179 -255.99447632 253.69351196 C-255.94904826 239.36059023 -255.44016072 225.41476083 -252.6875 211.3125 C-252.44604248 209.96696045 -252.44604248 209.96696045 -252.19970703 208.59423828 C-241.37712011 148.78411096 -207.31935543 91.27004171 -158.6875 54.3125 C-158.14722168 53.89581055 -157.60694336 53.47912109 -157.05029297 53.04980469 C-147.0552884 45.3665127 -136.59540964 38.62407032 -125.6875 32.3125 C-125.01025879 31.91820801 -124.33301758 31.52391602 -123.63525391 31.11767578 C-100.7166244 17.93538827 -75.14177437 9.32989082 -49.3125 4 C-48.60182373 3.85256348 -47.89114746 3.70512695 -47.15893555 3.55322266 C-31.51641634 0.56786213 -15.88080394 -0.0623098 0 0 Z " fill="#35CCFE" transform="translate(255.6875,-0.3125)"/>
<path d="M0 0 C6.02354802 5.00604835 11.59006522 10.39693968 17.15795898 15.90161133 C18.16376966 16.89294417 19.1697194 17.88413593 20.17579651 18.87519836 C29.2979173 27.86785978 38.38886715 36.89226992 47.47236538 45.92392445 C54.17858202 52.59115166 60.8991834 59.24315818 67.63920349 65.8762148 C72.38958784 70.5537424 77.12264358 75.24836948 81.84333092 79.95586413 C84.65908578 82.76276438 87.48198056 85.56148408 90.3239727 88.34183693 C92.9941883 90.95477245 95.64229019 93.58824493 98.27510643 96.23884392 C99.70326935 97.66571207 101.15369534 99.07018823 102.60470581 100.47381592 C109.54767293 107.5298933 109.54767293 107.5298933 109.60574341 112.96139526 C109.36821175 115.10906792 109.36821175 115.10906792 109 117 C108.8548999 117.95946533 108.7097998 118.91893066 108.56030273 119.9074707 C108.35348877 120.73851318 108.1466748 121.56955566 107.93359375 122.42578125 C107.58228394 123.85180664 107.58228394 123.85180664 107.22387695 125.30664062 C106.96437256 126.29857422 106.70486816 127.29050781 106.4375 128.3125 C106.16574951 129.36501953 105.89399902 130.41753906 105.61401367 131.50195312 C91.5906383 184.50847265 59.92242705 234.62136545 16 268 C15.45972168 268.41668945 14.91944336 268.83337891 14.36279297 269.26269531 C-17.57342714 293.81248941 -54.09236036 310.13659018 -93.5 318.375 C-94.22727295 318.53073486 -94.9545459 318.68646973 -95.70385742 318.84692383 C-97.17628975 319.13207395 -98.65857365 319.37022599 -100.14610291 319.56160069 C-103.10216523 319.96129926 -103.10216523 319.96129926 -106.32040405 320.89888668 C-111.73204573 321.93935149 -116.28533905 322.5355197 -121.24089813 319.73245931 C-127.51667682 315.05179614 -132.83741717 309.29008423 -138.2578125 303.67211914 C-140.12852273 301.79661008 -142.00232594 299.92476089 -143.88058472 298.05686951 C-147.90829932 294.03803914 -151.90388828 289.98943906 -155.87890625 285.91850471 C-161.62583897 280.03299157 -167.41954865 274.19538635 -173.2254796 268.3681355 C-182.64519137 258.91128148 -192.02636993 249.4171481 -201.38378906 239.89868164 C-210.46987616 230.65638172 -219.57377453 221.43223449 -228.70214844 212.23168945 C-229.26547402 211.66389757 -229.82879961 211.09610569 -230.40919566 210.51110799 C-233.23554498 207.66257189 -236.06224752 204.8143866 -238.88912582 201.96637547 C-262.31444049 178.36502768 -285.67738138 154.70284319 -309 131 C-308.34 130.67 -307.68 130.34 -307 130 C-304.77200165 131.01817129 -302.65160128 132.08876438 -300.5 133.25 C-289.77148589 138.82557836 -279.59164123 141.11374558 -267.49438477 141.20532227 C-266.67406265 141.21522186 -265.85374054 141.22512146 -265.00856018 141.23532104 C-262.31953739 141.26669885 -259.63049699 141.29159882 -256.94140625 141.31640625 C-255.0681057 141.33699631 -253.19480958 141.3579933 -251.32151794 141.37937927 C-246.40776169 141.43438814 -241.49396498 141.48389025 -236.58013916 141.53222656 C-230.67539325 141.59146392 -224.77072074 141.65757455 -218.86603546 141.72252655 C-209.9107354 141.82026926 -200.95538673 141.90930765 -192 142 C-192 128.14 -192 114.28 -192 100 C-127.98 99.67 -63.96 99.34 2 99 C3.65 96.03 5.3 93.06 7 90 C-58.67 89.67 -124.34 89.34 -192 89 C-192 70.85 -192 52.7 -192 34 C-124.02 34 -56.04 34 14 34 C10.02604653 21.7196751 10.02604653 21.7196751 4.75 10.25 C1.07432432 3.22297297 1.07432432 3.22297297 0 0 Z " fill="#00B9FE" transform="translate(399,190)"/>
<path d="M0 0 C14.7916417 10.81655701 26.46939713 24.79290329 33.88671875 41.5625 C33.88671875 42.2225 33.88671875 42.8825 33.88671875 43.5625 C34.85158203 43.60117188 34.85158203 43.60117188 35.8359375 43.640625 C59.81210316 45.14554838 79.11398206 58.30498408 94.88671875 75.5625 C103.07059546 85.38639962 112.88671875 101.38786774 112.88671875 114.5625 C44.90671875 114.5625 -23.07328125 114.5625 -93.11328125 114.5625 C-93.11328125 132.7125 -93.11328125 150.8625 -93.11328125 169.5625 C-21.50328125 169.5625 50.10671875 169.5625 123.88671875 169.5625 C123.88671875 169.8925 123.88671875 170.2225 123.88671875 170.5625 C117.94671875 170.5625 112.00671875 170.5625 105.88671875 170.5625 C105.22671875 172.5425 104.56671875 174.5225 103.88671875 176.5625 C102.74457836 178.90743637 102.74457836 178.90743637 100.88671875 180.5625 C98.17698659 180.95489206 95.87161228 181.0858482 93.16096497 181.04351807 C92.36619253 181.04693577 91.5714201 181.05035347 90.75256366 181.05387473 C88.08052897 181.0604809 85.40949146 181.03843309 82.73754883 181.01660156 C80.82580082 181.01547367 78.91405108 181.0161058 77.00230408 181.01837158 C71.80414947 181.01952194 66.60636207 180.99596052 61.40829301 180.96807575 C55.9790572 180.9431157 50.54981351 180.94072436 45.12052917 180.93597412 C34.83575075 180.92352846 24.55114186 180.89068531 14.26643819 180.85057616 C2.55923921 180.80590793 -9.14796775 180.78388386 -20.85523069 180.76379442 C-44.94136327 180.72195406 -69.02726335 180.6485818 -93.11328125 180.5625 C-93.11328125 194.4225 -93.11328125 208.2825 -93.11328125 222.5625 C-113.5152956 222.68282643 -113.5152956 222.68282643 -122.2890625 222.70898438 C-128.24894337 222.72683801 -134.20868446 222.74783615 -140.16845703 222.78881836 C-144.97955724 222.82169037 -149.79050732 222.83941103 -154.60171127 222.84713173 C-156.42669916 222.85262572 -158.25167991 222.86335231 -160.07660294 222.87969017 C-183.27045622 223.07886013 -203.39311612 217.92972586 -220.73828125 201.5 C-236.15811308 185.35427024 -242.62340493 166.67182886 -242.328125 144.49609375 C-241.72562081 125.15234125 -233.79218139 108.55341105 -220.61328125 94.625 C-203.14672827 78.45526766 -184.21776051 73.94607615 -161.11328125 74.5625 C-160.98373047 73.09103516 -160.98373047 73.09103516 -160.8515625 71.58984375 C-158.16201179 44.48770867 -144.67595825 21.27350164 -124.11328125 3.5625 C-87.9902909 -25.32013096 -37.75493581 -25.68173083 0 0 Z " fill="#FEFEFF" transform="translate(300.11328125,109.4375)"/>
<path d="M0 0 C16.44976032 0 16.44976032 0 23.375 1.5625 C24.170271 1.73668457 24.96554199 1.91086914 25.78491211 2.09033203 C50.22478035 7.8446089 73.63933055 24.10170951 87.125 45.375 C95 58.20485721 95 58.20485721 95 62 C95.96486328 62.03867188 95.96486328 62.03867188 96.94921875 62.078125 C120.92538441 63.58304838 140.22726331 76.74248408 156 94 C164.18387671 103.82389962 174 119.82536774 174 133 C116.58 133 59.16 133 0 133 C0 89.11 0 45.22 0 0 Z " fill="#DFE0E0" transform="translate(239,91)"/>
<path d="M0 0 C71.61 0 143.22 0 217 0 C217 18.48 217 36.96 217 56 C145.39 56 73.78 56 0 56 C0 37.52 0 19.04 0 0 Z " fill="#313638" transform="translate(207,356)"/>
<path d="M0 0 C71.61 0 143.22 0 217 0 C217 18.48 217 36.96 217 56 C145.39 56 73.78 56 0 56 C0 37.52 0 19.04 0 0 Z " fill="#333738" transform="translate(207,290)"/>
<path d="M0 0 C71.61 0 143.22 0 217 0 C217 18.15 217 36.3 217 55 C145.39 55 73.78 55 0 55 C0 36.85 0 18.7 0 0 Z " fill="#1B1B1A" transform="translate(207,224)"/>
<path d="M0 0 C36.3 0 72.6 0 110 0 C110 18.15 110 36.3 110 55 C73.7 55 37.4 55 0 55 C0 36.85 0 18.7 0 0 Z " fill="#1A1B1A" transform="translate(314,356)"/>
<path d="M0 0 C36.3 0 72.6 0 110 0 C110 18.15 110 36.3 110 55 C73.7 55 37.4 55 0 55 C0 36.85 0 18.7 0 0 Z " fill="#1B1B1A" transform="translate(314,290)"/>
<path d="M0 0 C35.31 0 70.62 0 107 0 C107 18.15 107 36.3 107 55 C71.69 55 36.38 55 0 55 C0 36.85 0 18.7 0 0 Z " fill="#343434" transform="translate(207,224)"/>
<path d="M0 0 C71.61 0 143.22 0 217 0 C217 0.33 217 0.66 217 1 C211.06 1 205.12 1 199 1 C198.34 2.98 197.68 4.96 197 7 C195.78193188 9.34493637 195.78193188 9.34493637 194 11 C191.10084248 11.49219131 191.10084248 11.49219131 187.48908997 11.48101807 C186.82499121 11.48443577 186.16089245 11.48785347 185.47666949 11.49137473 C183.24678673 11.49797432 181.01810229 11.47594546 178.78833008 11.45410156 C177.19184904 11.45297352 175.59536593 11.45360609 173.99888611 11.45587158 C169.66017814 11.45702137 165.32191063 11.43346952 160.98330522 11.40557575 C156.45094412 11.38060602 151.91857344 11.3782236 147.38615417 11.37347412 C138.801326 11.36103129 130.21670107 11.32819205 121.63196248 11.28807616 C111.85943523 11.24339906 102.08689838 11.22138165 92.31429446 11.20129442 C72.20941611 11.15946052 52.10472085 11.08908312 32 11 C32 7.7 32 4.4 32 1 C21.44 1 10.88 1 0 1 C0 0.67 0 0.34 0 0 Z " fill="#D7D8D9" transform="translate(207,279)"/>
<path d="M0 0 C6.93 0 13.86 0 21 0 C21 6.6 21 13.2 21 20 C14.07 20 7.14 20 0 20 C0 13.4 0 6.8 0 0 Z " fill="#86BD3D" transform="translate(385,242)"/>
<path d="M0 0 C6.6 0 13.2 0 20 0 C20 6.6 20 13.2 20 20 C13.4 20 6.8 20 0 20 C0 13.4 0 6.8 0 0 Z " fill="#89C23E" transform="translate(386,374)"/>
<path d="M0 0 C6.6 0 13.2 0 20 0 C20 6.6 20 13.2 20 20 C13.4 20 6.8 20 0 20 C0 13.4 0 6.8 0 0 Z " fill="#FBD800" transform="translate(358,374)"/>
<path d="M0 0 C6.6 0 13.2 0 20 0 C20 6.6 20 13.2 20 20 C13.4 20 6.8 20 0 20 C0 13.4 0 6.8 0 0 Z " fill="#89C23E" transform="translate(386,308)"/>
<path d="M0 0 C6.6 0 13.2 0 20 0 C20 6.6 20 13.2 20 20 C13.4 20 6.8 20 0 20 C0 13.4 0 6.8 0 0 Z " fill="#FAD800" transform="translate(358,308)"/>
<path d="M0 0 C6.6 0 13.2 0 20 0 C20 6.6 20 13.2 20 20 C13.4 20 6.8 20 0 20 C0 13.4 0 6.8 0 0 Z " fill="#FAD800" transform="translate(358,242)"/>
</svg>
